<svg xmlns="http://www.w3.org/2000/svg" width="448" height="460" fill="none" viewBox="0 0 448 460">
  <path fill="#212E63" d="M72.87 76.518l37.357 91.894a3.443 3.443 0 01-2.41 5.509l-49.166 6.886a8.026 8.026 0 01-7.506-4.097l-37.39-91.894a3.444 3.444 0 012.444-5.51l49.131-6.885a8.057 8.057 0 017.54 4.097z"/>
  <path fill="#4E5882" d="M67.019 77.31l37.356 91.859c1.412 2.651.344 5.13-2.41 5.509l-49.132 6.886a7.988 7.988 0 01-7.54-4.097L7.937 85.504c-1.412-2.651-.345-5.13 2.41-5.509l49.131-6.886a8.091 8.091 0 017.54 4.2z"/>
  <path fill="#141C3C" d="M54.14 83.542a4.235 4.235 0 103.444-4.855 4.27 4.27 0 00-3.443 4.855z"/>
  <path fill="#F7A9A0" d="M251.529 198.504c-18.937 63.282-69.825 149.426-95.578 153.627-12.257 1.997-33.742 8.194-51.955-3.443-39.732-25.547-77.915-80.016-88.967-112.828-3.925-11.671 50.543-46.342 60.597-37.873 23.584 19.832 53.71 61.183 57.257 60.391 13.049-2.996 58.255-53.711 89.793-89.518 38.252-43.176 36.393 4.407 28.853 29.644zM4.355 174.093c2.513-25.237 7.058-31.331-2.135-53.814-6.025-14.736.792-24.893 13.462-14.254 20.659 17.421 24.308 50.715 22.242 62.593l-33.569 5.475z"/>
  <path fill="#F7A9A0" d="M19.435 245.845S3.53 213.55 3.563 186.384c0-18.799 4.648-59.701 52.988-88.14 11.5-6.887 32.605-8.23 17.869 9.605-10.329 12.636-20.9 17.525-25.65 25.995 0 0 27.096 1.308 33.397 13.049a244.096 244.096 0 0114.288 31.917 53.349 53.349 0 01-5.715 3.202s5.578 11.189-.654 29.162l-70.65 34.671z"/>
  <path fill="#F7A9A0" d="M6.524 168.446c6.473-7.436 20.486-22.896 36.358-31.572 17.628-9.64 54.193-23.447 61.182-10.329 5.13 9.572-8.366 16.079-8.366 16.079s16.285-2.513 19.04 7.161c2.478 8.814-8.264 13.222-8.264 13.222s10.157.172 10.915 9.124c.895 10.776-20.658 8.641-29.025 20.382-1.997 2.582-81.84-24.067-81.84-24.067z"/>
  <path fill="#141C3C" d="M49.906 157.188a79.876 79.876 0 0145.345-14.805c.413 0 .654.31.275.379A195.902 195.902 0 0050.01 157.36l-.104-.172zM60.132 174.713a89.89 89.89 0 0146.239-12.085c.414 0 .62.344.242.413a208.81 208.81 0 00-46.378 11.982s-.172-.276-.103-.31z"/>
  <path fill="#E83C4D" d="M18.162 260.616s61.974 87.177 91.377 93.925c29.403 6.748 45.689 1.825 55.777-1.274a27.72 27.72 0 0010.122-6.886c25.031-24.101 64.522-102.395 78.914-145.191 10.811-32.158 5.026-58.945-16.802-46.756a78.595 78.595 0 00-19.315 16.836c-37.185 42.039-81.496 83.424-84.01 82.632-2.513-.792-32.846-35.945-32.846-35.945l-83.217 42.659z"/>
  <path fill="#141C3C" d="M18.162 260.616s61.974 87.177 91.377 93.925c29.403 6.748 45.689 1.825 55.777-1.274a27.72 27.72 0 0010.122-6.886c25.031-24.101 64.522-102.395 78.914-145.191 10.811-32.158 5.026-58.945-16.802-46.756a78.595 78.595 0 00-19.315 16.836c-37.185 42.039-81.496 83.424-84.01 82.632-2.513-.792-32.846-35.945-32.846-35.945l-83.217 42.659z" opacity=".2"/>
  <path fill="#141C3C" d="M32.587 276.006c2.892-2.238 30.987-18.386 37.322-21.76 6.336-3.374 31.435-17.422 38.115-20.383a.254.254 0 01.193-.019.248.248 0 01.151.123.24.24 0 01.029.095.27.27 0 01-.009.098.248.248 0 01-.124.151c-5.99 4.132-31.4 18.386-37.666 21.932-6.266 3.546-34.43 18.936-37.873 20.21-.241.104-.344-.275-.138-.447z"/>
  <path fill="#E83C4D" d="M182.567 378.931h203.82c-9.736-60.212-37.907-178.854-94.369-231.384-13.496-12.567-37.873-9.399-49.028-3.202-5.647 3.099-25.134 30.505-30.987 54.537-4.809 19.744-24.197 137.067-29.436 180.049z"/>
  <path fill="#212E63" d="M352.822 249.632l-149.048-9.193c.655-3.649 1.274-7.127 1.894-10.329l142.988 8.918c1.446 3.34 2.823 6.955 4.166 10.604zM360.43 271.427l-160.375-10.054c.654-3.443 1.24-7.058 1.859-10.329l154.936 9.709c1.205 3.34 2.41 6.955 3.58 10.674z"/>
  <path fill="#E83C4D" d="M305.515 152.23c68.309 34.671 146.706 112.965 142.127 138.994-5.13 29.024-103.29-20.004-102.292-24.342.861-3.719-19.763-34.878-49.235-79.534-29.988-45.413-7.505-43.691 9.4-35.118z"/>
  <path fill="#141C3C" d="M305.515 152.23c68.309 34.671 146.706 112.965 142.127 138.994-5.13 29.024-103.29-20.004-102.292-24.342.861-3.719-19.763-34.878-49.235-79.534-29.988-45.413-7.505-43.691 9.4-35.118z" opacity=".2"/>
  <path fill="#F7A9A0" d="M447.641 291.224c-5.99 20.279-36.22 33.845-109.074 75.195-10.088 5.715-69.617-54.606-59.151-61.251 13.187-8.401 66.106-38.114 70.238-39.801 34.946-14.185 102.05 12.119 97.987 25.857z"/>
  <path fill="#F7A9A0" d="M293.843 296.388s-31.365 16.045-45.241 29.541a124.678 124.678 0 00-30.195 51.37c-6.266 20.83-7.058 75.505 8.677 78.466 14.185 2.72 12.188-53.229 12.188-53.229s-7.368 57.361 10.329 57.464c17.697.103 11.706-64.625 11.706-64.625s-6.232 59.116 12.051 56.293c13.772-2.1 11.671-61.079 11.671-61.079s-4.992 50.819 9.296 49.269c15.804-1.721 17.215-56.293 17.215-56.293 35.704-10.088 48.581-29.506 56.087-44.38 1.825-3.684-73.784-42.797-73.784-42.797z"/>
  <path fill="#141C3C" d="M240.648 382.532c-1.102 6.886-2.272 13.497-2.789 20.28-.516 6.782-.792 13.599-.654 20.382a117.06 117.06 0 002.996 26.408c-2.411-15.631-.999-39.939-.482-46.722.516-6.782.688-13.565 1.17-20.348-.069-.172-.241-.172-.241 0zM265.059 383.91c-1.033 8.642-2.376 17.215-3.064 25.822-.689 8.608-.517 16.905-.586 25.547 0 .654.345.448.379-.206.413-8.642 1.48-16.63 1.962-25.272s.689-17.215 1.515-25.857l-.206-.034zM286.336 381.327a192.825 192.825 0 00-1.652 39.836c0 .654.447.344.447-.345.31-13.255.448-23.653 1.653-39.422 0-.241-.413-.344-.448-.069z"/>
  <path fill="#E83C4D" d="M278.177 298.11s83.94 63.936 84.835 63.592c.896-.344 83.321-48.719 84.629-70.478 1.309-21.76-66.932-37.873-97.919-25.995-30.987 11.878-71.545 32.881-71.545 32.881z"/>
  <path fill="#141C3C" d="M278.177 298.11s83.94 63.936 84.835 63.592c.896-.344 83.321-48.719 84.629-70.478 1.309-21.76-66.932-37.873-97.919-25.995-30.987 11.878-71.545 32.881-71.545 32.881z" opacity=".2"/>
  <path fill="#141C3C" d="M306.616 288.848c3.271 1.997 29.782 23.344 35.429 28.095 5.646 4.751 28.99 24.101 34.43 29.403a.28.28 0 01-.006.345.284.284 0 01-.157.094.282.282 0 01-.181-.025c-6.301-4.27-29.886-23.619-35.739-28.371-5.853-4.751-31.607-26.408-34.085-29.162-.242-.241.103-.585.309-.379zM387.045 261.993c-7.196-1.136-27.028-2.789-43.107 5.268-.172 0 0 .309 0 .24a132.887 132.887 0 0142.935-5.267c.275.034.344-.207.172-.241z"/>
  <path fill="#212E63" d="M235.587 147.272c-8.538 7.609-11.672 32.915 4.752 37.873 16.423 4.958 39.112-21.725 41.763-36.255 2.651-14.529-27.682-18.626-46.515-1.618z"/>
  <path fill="#F7A9A0" d="M240.373 178.465c11.741 2.583 31.469-15.596 39.147-30.16.551-.999-4.235-40.559-4.372-48.512 0-1.619-49.648 12.945-49.648 12.945 3 9.87 4.792 20.067 5.336 30.368 0 1.308-1.79 33.018 9.537 35.359z"/>
  <path fill="#212E63" d="M273.598 99.93c-2.307 12.843-10.88 46.24-37.873 47.342a31.489 31.489 0 01-4.854-.207v-3.821a127.604 127.604 0 00-5.371-30.196l.826-.241c.344 0 .826-.241 1.377-.413l.551-.172 1.102-.31 1.377-.413 2.307-.654.86-.241 1.791-.517 6.886-1.997 2.685-.757 3.443-.964 3.443-.93h.448l5.784-1.583 1.928-.517 3.684-.964 2.479-.62 4.855-1.136 1.067-.206 1.205-.483z" opacity=".32"/>
  <path fill="#F7A9A0" d="M273.942 38.817c7.747 16.768 5.44 68.55-5.474 81.531-15.804 18.798-45.138 24.411-61.974 4.648-16.355-19.143-12.188-86.592.31-98.746 18.385-17.903 55.673-12.188 67.138 12.567z"/>
  <path fill="#212E63" d="M227.91 76.311s.275 0 .241.31c-.241 3.443 0 7.506 3.167 8.814v.173c-3.856-.689-4.2-6.06-3.408-9.297z"/>
  <path fill="#212E63" d="M231.18 72.8c5.612-.207 5.612 11.052.378 11.224-5.233.172-5.13-11.052-.378-11.224zM208.594 76.828s-.276.172-.276.31c0 3.443-.344 7.506-3.443 8.676 0 0 0 .207 0 0 3.822-.31 4.373-5.715 3.719-8.986z"/>
  <path fill="#212E63" d="M205.461 73.179c-5.612-.414-6.06 10.845-.861 11.224 5.199.378 5.578-10.88.861-11.224zM235.621 67.635a38.827 38.827 0 01-4.373-1.55 7.643 7.643 0 01-4.166-2.41 2.41 2.41 0 01.379-2.891 6.091 6.091 0 015.991-.62 8.743 8.743 0 014.992 3.787 2.546 2.546 0 01-1.386 3.6c-.461.166-.96.195-1.437.084zM201.122 71.285c1.55-.276 2.961-.758 4.476-1.171a7.26 7.26 0 004.338-2.066 2.34 2.34 0 000-2.892 5.848 5.848 0 00-5.887-1.102 8.605 8.605 0 00-5.302 3.443 2.545 2.545 0 002.375 3.788z"/>
  <path fill="#212E63" d="M228.392 98.209a12.042 12.042 0 01-7.954 5.302 14.931 14.931 0 01-4.304.172H214.551a.892.892 0 01-.689-.791 1.415 1.415 0 010-.379v-.31c0-2.686.207-6.886.207-6.886-.999.482-5.991 2.754-5.922 1.343a179.413 179.413 0 014.613-35.98c0-.379.689-.31.654 0-.241 11.224-2.444 22.31-2.857 33.535a21.695 21.695 0 015.646-1.687c.379 0-.654 7.885-.516 9.09a16.457 16.457 0 0012.326-3.822c.31-.103.585.138.379.413z"/>
  <path fill="#212E63" d="M217.752 102.34a14.154 14.154 0 005.647 4.373 6.643 6.643 0 003.856.241c2.789-.723 2.858-3.443 2.341-5.474a15.207 15.207 0 00-1.239-3.443 18.38 18.38 0 01-10.605 4.303z"/>
  <path fill="#FF99BA" d="M223.433 106.713a6.643 6.643 0 003.856.241c2.789-.723 2.857-3.443 2.341-5.474a6.542 6.542 0 00-6.197 5.233z"/>
  <path fill="#E83C4D" d="M200.469 47.218c18.282 11.465 41.832-7.953 41.832-7.953a19.381 19.381 0 0020.107 11.43s4.717 29.886 12.636 29.507c12.085-.585 14.151-41.695 10.019-49.58-4.131-7.884-14.495-9.536-14.495-9.536a19.59 19.59 0 00-8.71-11.603c-8.505-5.991-36.634 3.684-36.634 3.684a26.342 26.342 0 00-7.678-9.537 7.545 7.545 0 00-8.509-.595 7.538 7.538 0 00-2.233 2.006 17.743 17.743 0 013.202 7.3c1.79 8.745-5.406 9.02-5.647 1.032-.21-2.98.658-5.937 2.445-8.332-3.753-5.06-9.606-6.507-13.015-3.443-6.197 5.2-8.504 36.117 6.68 45.62z"/>
  <path fill="#F7A9A0" d="M268.778 81.476s9.571-17.731 17.49-14.495c7.919 3.236 2.066 27.957-6.3 32.227a8.962 8.962 0 01-6.967.939 8.96 8.96 0 01-5.497-4.383l1.274-14.288z"/>
  <path fill="#212E63" d="M284.409 74.005v.24c-5.853 3.203-8.401 9.263-9.985 15.391a4.999 4.999 0 013.097-2.738 4.99 4.99 0 014.099.535c.046 0 .089.018.122.05a.173.173 0 01-.122.294 5.545 5.545 0 00-5.784 2.617 25.161 25.161 0 00-2.307 5.198c-.207.586-1.24.414-1.102-.24v-.173c-1.102-7.78 3.684-19.384 11.982-21.174z"/>
</svg>
