<svg xmlns="http://www.w3.org/2000/svg" width="103" height="80" fill="none" viewBox="0 0 103 80">
  <path fill="#E83C4D" d="M97.683 15.984L54.418.815C51-.413 47.261-.253 44.003 1.295L21.516 11.979c-8.76 4.167-12.498 14.635-8.332 23.395l3.578 7.478a15.65 15.65 0 001.923-1.496c2.083-1.816 3.579-3.899 4.38-5.822-2.777-1.442-4.647-4.22-4.647-7.745 0-5.287 4.22-8.866 9.294-8.866 5.02 0 9.24 3.579 9.24 8.866 0 3.953-2.35 6.944-5.608 8.226-1.068 4.113-3.739 8.119-7.424 11.377-1.175 1.015-2.457 1.923-3.74 2.724l3.42 7.21a13.714 13.714 0 007.584 6.89l43.37 15.224c3.526 1.281 7.372-.535 8.654-4.06l18.481-50.795c1.335-3.419-.481-7.318-4.006-8.6zM64.3 25.76c0-.32.213-.534.534-.534h10.041c.32 0 .534.213.534.534v3.472c0 .32-.213.534-.534.534H64.834c-.32 0-.534-.214-.534-.534v-3.472zm-18.481 34.13c0 .32-.214.535-.534.535h-4.273c-.32 0-.534-.214-.534-.535V39.165c0-.32.213-.534.534-.534h4.273c.32 0 .534.214.534.534V59.89zm0-24.142c0 .32-.214.534-.534.534h-4.273c-.32 0-.534-.214-.534-.534V23.676h-1.87c-.32 0-.534-.214-.534-.534v-3.205c0-.32.214-.534.534-.534h1.87V18.12c0-3.953 2.724-6.463 6.783-6.463.961 0 1.923.16 2.884.534.267.107.374.374.32.64l-.854 3.152c-.053.267-.374.428-.64.374-.321-.107-.695-.107-.962-.107-1.282 0-2.19.748-2.19 2.137v1.068h6.783v-1.282c0-3.952 2.724-6.463 6.784-6.463.961 0 1.922.16 2.884.534.267.107.374.374.32.641l-.854 3.152c-.054.267-.374.427-.641.374-.32-.107-.694-.107-.962-.107-1.281 0-2.19.747-2.19 2.136v1.069h4.113c.32 0 .534.213.534.534v3.204c0 .32-.213.534-.534.534h-4.112V35.8c0 .32-.214.535-.535.535h-4.273c-.32 0-.534-.214-.534-.535V23.676H45.82v12.07zm20.403 17.626H53.884c.428 2.03 1.816 3.258 3.632 3.258 1.175 0 2.51-.267 3.419-1.656a.508.508 0 01.534-.213l3.739.748c.32.053.534.427.374.747-1.55 3.098-4.434 4.647-8.066 4.647-4.86 0-8.866-3.578-8.866-8.92 0-5.288 4.006-8.92 8.92-8.92 4.753 0 8.6 3.419 8.706 8.92v1.39h-.053zm14.85 6.517c-1.176.587-2.458 1.014-4.22 1.014-4.167 0-6.73-2.296-6.73-6.676v-6.41h-2.51c-.321 0-.535-.213-.535-.534V44.08c0-.32.214-.534.534-.534h2.51v-4.433c0-.32.214-.534.535-.534h4.273c.32 0 .534.213.534.534v4.433h4.433c.32 0 .534.214.534.534v3.205c0 .32-.213.534-.534.534h-4.433v5.822c0 1.763.855 2.457 2.243 2.457.534 0 1.282-.16 1.923-.427.32-.107.641.053.748.32l.961 3.205c.107.32 0 .534-.267.694z"/>
  <path fill="#E83C4D" d="M57.57 47.444a3.777 3.777 0 00-3.579 2.67h6.944c-.481-1.868-1.816-2.67-3.365-2.67z"/>
  <path fill="#212E63" d="M31.825 27.842c0-2.617-1.977-4.38-4.06-4.38-2.19 0-4.166 1.763-4.166 4.38 0 1.976 1.122 3.418 2.564 4.06.053 3.471-2.137 7.904-5.982 11.27-1.389 1.228-2.885 2.243-4.434 2.99-1.068.535-2.19.962-3.311 1.229-.054 0-.107.053-.16.053-.374.107-.748.16-1.175.214-1.015.16-2.03.16-2.885 0-1.442-.214-2.67-.801-3.525-1.763-2.884-3.311-.748-10.148 4.7-14.902-.213-1.388-.267-2.777-.213-4.22-.695.481-1.336 1.015-2.03 1.603-7.05 6.142-9.24 14.849-4.967 19.71a7.891 7.891 0 002.617 1.976c.16.106.32.16.48.213.321.16.695.267 1.069.374 1.282.374 2.724.534 4.273.374.32 0 .694-.054 1.015-.107.213-.053.427-.053.694-.107.053 0 .107 0 .16-.053.16-.053.374-.053.534-.107h.107c.214-.053.427-.107.588-.16h.053c.214-.054.427-.107.641-.214 2.778-.908 5.555-2.457 8.012-4.593 4.807-4.166 7.371-9.508 7.21-13.994 1.23-.641 2.19-2.03 2.19-3.846z"/>
</svg>
