<svg width="52" height="40" viewBox="0 0 52 40" fill="none" xmlns="http://www.w3.org/2000/svg">
<path d="M48.8413 7.99213L27.2091 0.407528C25.4999 -0.206717 23.6305 -0.126598 22.0014 0.647885L10.758 5.98915C6.37821 8.07224 4.50876 13.3067 6.59186 17.6865L8.38118 21.4254C8.70166 21.2118 9.02213 20.9714 9.34261 20.6776C10.3842 19.7696 11.1319 18.7281 11.5325 17.7666C10.1438 17.0456 9.20908 15.6568 9.20908 13.8942C9.20908 11.2503 11.3189 9.46097 13.856 9.46097C16.3664 9.46097 18.4762 11.2503 18.4762 13.8942C18.4762 15.8705 17.3011 17.366 15.672 18.007C15.1379 20.0634 13.8026 22.0664 11.9598 23.6954C11.3723 24.2029 10.7313 24.6569 10.0904 25.0575L11.7996 28.6628C12.5741 30.2652 13.9361 31.4937 15.5919 32.1079L37.2774 39.7192C39.04 40.3602 40.9629 39.4522 41.6039 37.6896L50.8442 12.2918C51.5119 10.5826 50.6039 8.63308 48.8413 7.99213ZM32.1498 12.8794C32.1498 12.7191 32.2566 12.6123 32.4169 12.6123H37.4377C37.5979 12.6123 37.7047 12.7191 37.7047 12.8794V14.6153C37.7047 14.7755 37.5979 14.8824 37.4377 14.8824H32.4169C32.2566 14.8824 32.1498 14.7755 32.1498 14.6153V12.8794ZM22.9094 29.9447C22.9094 30.105 22.8026 30.2118 22.6424 30.2118H20.5059C20.3456 30.2118 20.2388 30.105 20.2388 29.9447V19.5827C20.2388 19.4224 20.3456 19.3156 20.5059 19.3156H22.6424C22.8026 19.3156 22.9094 19.4224 22.9094 19.5827V29.9447ZM22.9094 17.8735C22.9094 18.0337 22.8026 18.1405 22.6424 18.1405H20.5059C20.3456 18.1405 20.2388 18.0337 20.2388 17.8735V11.8378H19.3041C19.1438 11.8378 19.037 11.731 19.037 11.5708V9.96839C19.037 9.80816 19.1438 9.70133 19.3041 9.70133H20.2388V9.06038C20.2388 7.08411 21.6008 5.82891 23.6305 5.82891C24.1112 5.82891 24.5919 5.90903 25.0726 6.09598C25.2062 6.14939 25.2596 6.28292 25.2329 6.41645L24.8056 7.99213C24.7789 8.12566 24.6186 8.20578 24.4851 8.17907C24.3249 8.12566 24.1379 8.12566 24.0044 8.12566C23.3634 8.12566 22.9094 8.49955 22.9094 9.19391V9.72804H25.0993H25.2329H26.3011V9.08709C26.3011 7.11082 27.6631 5.85562 29.6928 5.85562C30.1735 5.85562 30.6543 5.93574 31.135 6.12268C31.2685 6.1761 31.3219 6.30963 31.2952 6.44316L30.8679 8.01883C30.8412 8.15236 30.681 8.23248 30.5474 8.20578C30.3872 8.15236 30.2002 8.15236 30.0667 8.15236C29.4258 8.15236 28.9718 8.52625 28.9718 9.22062V9.75474H31.0281C31.1884 9.75474 31.2952 9.86157 31.2952 10.0218V11.6242C31.2952 11.7844 31.1884 11.8912 31.0281 11.8912H28.9718V17.9002C28.9718 18.0604 28.8649 18.1672 28.7047 18.1672H26.5682C26.408 18.1672 26.3011 18.0604 26.3011 17.9002V11.8378H25.2329H25.0993H22.9094V17.8735ZM33.1112 26.6866H26.9421C27.1557 27.7014 27.8501 28.3156 28.7581 28.3156C29.3456 28.3156 30.0133 28.1821 30.4673 27.4877C30.5207 27.4076 30.6276 27.3542 30.7344 27.3809L32.6038 27.7548C32.7641 27.7815 32.8709 27.9685 32.7908 28.1287C32.0163 29.6777 30.5741 30.4521 28.7581 30.4521C26.3278 30.4521 24.3249 28.6628 24.3249 25.9922C24.3249 23.3483 26.3278 21.5322 28.7848 21.5322C31.1617 21.5322 33.0845 23.2414 33.1379 25.9922V26.6866H33.1112ZM40.5356 29.9447C39.9481 30.2385 39.3071 30.4521 38.4258 30.4521C36.3427 30.4521 35.0608 29.3038 35.0608 27.1139V23.9091H33.8056C33.6454 23.9091 33.5385 23.8023 33.5385 23.642V22.0397C33.5385 21.8794 33.6454 21.7726 33.8056 21.7726H35.0608V19.556C35.0608 19.3957 35.1676 19.2889 35.3279 19.2889H37.4644C37.6246 19.2889 37.7314 19.3957 37.7314 19.556V21.7726H39.9481C40.1083 21.7726 40.2151 21.8794 40.2151 22.0397V23.642C40.2151 23.8023 40.1083 23.9091 39.9481 23.9091H37.7314V26.8201C37.7314 27.7014 38.1587 28.0486 38.8531 28.0486C39.1202 28.0486 39.4941 27.9685 39.8145 27.8349C39.9748 27.7815 40.135 27.8616 40.1884 27.9952L40.6691 29.5975C40.7225 29.7578 40.6691 29.8646 40.5356 29.9447Z" fill="#E83C4D"/>
<path d="M28.7848 23.7222C28.037 23.7222 27.2626 24.2029 26.9955 25.0575H30.4673C30.227 24.1228 29.5593 23.7222 28.7848 23.7222Z" fill="#E83C4D"/>
<path d="M15.9123 13.9209C15.9123 12.6123 14.9242 11.731 13.8826 11.731C12.7877 11.731 11.7995 12.6123 11.7995 13.9209C11.7995 14.909 12.3604 15.6301 13.0815 15.9506C13.1082 17.6865 12.0132 19.9031 10.0903 21.5856C9.39598 22.1998 8.6482 22.7073 7.87372 23.0811C7.33959 23.3482 6.77876 23.5619 6.21792 23.6954C6.19122 23.6954 6.16451 23.7221 6.1378 23.7221C5.95086 23.7755 5.76392 23.8022 5.55027 23.8289C5.04285 23.909 4.53543 23.909 4.10812 23.8289C3.38705 23.7221 2.77281 23.4283 2.34551 22.9476C0.903365 21.2918 1.97162 17.8734 4.69566 15.4965C4.58884 14.8022 4.56213 14.1078 4.58884 13.3867C4.24166 13.6271 3.92118 13.8942 3.574 14.1879C0.0487624 17.2592 -1.0462 21.6123 1.09031 24.0426C1.4642 24.4699 1.8915 24.7903 2.39892 25.0307C2.47904 25.0841 2.55916 25.1108 2.63928 25.1375C2.79951 25.2176 2.98646 25.2711 3.1734 25.3245C3.81435 25.5114 4.53543 25.5915 5.30991 25.5114C5.47015 25.5114 5.65709 25.4847 5.81733 25.458C5.92415 25.4313 6.03098 25.4313 6.16451 25.4046C6.19122 25.4046 6.21792 25.4046 6.24463 25.3779C6.32475 25.3512 6.43157 25.3512 6.51169 25.3245C6.5384 25.3245 6.5384 25.3245 6.56511 25.3245C6.67193 25.2978 6.77876 25.2711 6.85888 25.2444H6.88558C6.99241 25.2176 7.09923 25.1909 7.20606 25.1375C8.59479 24.6835 9.98352 23.909 11.212 22.8408C13.6156 20.7577 14.8975 18.0871 14.8174 15.8437C15.4316 15.5233 15.9123 14.8289 15.9123 13.9209Z" fill="white"/>
</svg>
